<svg version="1.1" id="Layer_1" xmlns="http://www.w3.org/2000/svg" x="0" y="0" viewBox="0 0 566 566" xml:space="preserve"><style>.st1{fill-rule:evenodd;clip-rule:evenodd;fill:#c00203}</style><path d="M195.6 246.9h-60.9l-14.2 73.5h61.9l3.6-18.7h-39.7l2.1-10.7h35.1l3.3-17h-35.1l1.8-9.2h38.7l3.4-17.9zm-70.7 0h-22.5l-9.7 49.9c-1 5.1-3 7.2-7 7.2-6.9 0-4.6-7.5-3.7-12.4l.4-2.2H62.3l-1.1 5.5c-3.3 16.9 4 27.1 21.9 27.1 17.3 0 29-9 32.3-26.3l9.5-48.8zm140.5 0h-63.7l-3.5 17.9h20.5l-10.8 55.6h22.5l10.8-55.6H262l3.4-17.9z" fill-rule="evenodd" clip-rule="evenodd" fill="#bdbfc1"/><path class="st1" d="M408.3 246.9l-14.2 73.5h38.6c14.3 0 29.1-5.1 32.5-22.3 1.8-9.5-1.6-15.2-9.3-18.1 6.2-3.3 10.6-7.5 12-14.8 2.9-15.2-10.4-18.4-22.6-18.4h-37zm18.6 16.7h11.7c5.3 0 7.5 2 6.7 5.8-.7 3.5-3.7 5.6-7.9 5.6h-12.7l2.2-11.4zm43.8 47.6l.2-.9.8.1-.2.9-.8-.1zm1.1-.9l.1-.8.9.2-.1.8-.9-.2zm.6-3.8l.1-.8.9.2-.1.8-.9-.2zm.6-3.9l.2-.9.9.2-.2.9-.9-.2zm.7-3.9l.1-.8.9.2-.1.8-.9-.2zm.6-3.8l.1-.8.9.2-.1.8-.9-.2zm.6-3.8l.2-.9.9.2-.2.9-.9-.2zm-1.9 18.4l.1-.8.8.1-.1.8-.8-.1zm.6-3.8l.2-.9.8.1-.2.9-.8-.1zm.6-3.9l.1-.8.8.1-.1.8-.8-.1zm.3-1.9l.2-.9.8.1-.2.9-.8-.1zm.7-3.9l.1-.8.8.1-.1.8-.8-.1zm.6-3.8l.1-.8.8.1-.1.8-.8-.1zm-1.8 16.6l.2-.9.8.1-.2.9-.8-.1zm.7-4l.1-.8.8.1-.1.8-.8-.1zm.6-3.8l.1-.8.8.1-.1.8-.8-.1zm.6-3.8l.2-.9.8.1-.2.9-.8-.1zm.7-4l.1-.8.8.1-.1.8-.8-.1zm-1.5 14.7l.1-.8.9.2-.1.8-.9-.2zm.7-3.9l.1-.8.9.2-.1.8-.9-.2zm.9-5.7l.1-.8.9.2-.1.8-.9-.2zm.6-3.9l.2-.9.9.2-.2.9-.9-.2zm-1 12.7l.1-.8.8.1-.1.8-.8-.1zm.7-3.8l.2-.9.8.1-.2.9-.8-.1zm.6-3.9l.1-.8.8.1-.1.8-.8-.1zm.6-3.9l.1-.8.8.1-.1.8-.8-.1zm-.8 10.8l.2-.9.8.1-.2.9-.8-.1zm.7-3.9l.1-.8.8.1-.1.8-.8-.1zm.3-1.9l.2-.9.8.1-.2.9-.8-.1zm.6-3.9l.1-.8.8.1-.1.8-.8-.1zm-.5 8.8l.1-.8.9.2-.1.8-.9-.2zm.6-3.8l.1-.8.9.2-.1.8-.9-.2zm.7-3.8l.2-.9.9.2-.2.9-.9-.2zm-.1 6.9l.1-.8.8.1-.1.8-.8-.1zm1-5.8l.1-.8.8.1-.1.8-.8-.1zm.1 5l.2-.9.8.1-.2.9-.8-.1zm.6-3.9l.1-.8.8.1-.1.8-.8-.1zm.5 3l.1-.8.9.2-.1.8-.9-.2zm.3-1.8l.2-.9.9.2-.2.9-.9-.2zm.9 1.1l.1-.8.8.1-.1.8-.8-.1zm.1 5l.2-1-.9-.2.1-.8.9.2.2-.9.8.1-.2.9 1 .2-.1.8-1-.2-.2 1-.8-.1zm1.7-4.7l.1-.8.9.2-.1.8-.9-.2zm.9 1.1l.1-.8.8.1-.1.8-.8-.1zm.3-1.9l.2-.9.8.1-.2.9-.8-.1zm.5 3.1l.2-.9.8.1-.2.9-.8-.1zm.6-4l.1-.8.8.1-.1.8-.8-.1zm.2 5l.1-.8.9.2-.1.8-.9-.2zm.9-5.8l.1-.8.9.2-.1.8-.9-.2zm0 6.9l.1-.8.8.1-.1.8-.8-.1zm.6-3.8l.1-.8.8.1-.1.8-.8-.1zm.6-3.8l.2-.9.8.1-.2.9-.8-.1zm-.5 8.8l.2-.9.8.1-.2.9-.8-.1zm.7-3.9l.1-.8.8.1-.1.8-.8-.1zm.3-1.9l.2-.9.8.1-.2.9-.8-.1zm.6-3.9l.1-.8.8.1-.1.8-.8-.1zm-.8 10.8l.1-.8.9.2-.1.8-.9-.2zm.6-3.8l.2-.9.9.2-.2.9-.9-.2zm.7-3.9l.1-.8.9.2-.1.8-.9-.2zm.6-3.9l.1-.8.9.2-.1.8-.9-.2zm-1 12.7l.1-.8.8.1-.1.8-.8-.1zm.6-3.8l.1-.8.8.1-.1.8-.8-.1zm1-5.8l.1-.8.8.1-.1.8-.8-.1zm.6-3.8l.2-.9.8.1-.2.9-.8-.1zm-1.5 14.6l.2-.9.8.1-.2.9-.8-.1zm.7-3.9l.1-.8.8.1-.1.8-.8-.1zm.6-3.9l.1-.8.8.1-.1.8-.8-.1zm.6-3.8l.2-.9.8.1-.2.9-.8-.1zm.7-3.9l.1-.8.8.1-.1.8-.8-.1zm.4 3l.1-.8.9.2-.1.8-.9-.2zm.7-3.8l.1-.8.9.2-.1.8-.9-.2zm-5.2 25.1h1.4l.7-3.8-.6-.1-.2 1-.9-.2-.2.9-.9-.2-.2 1 .9.2v1.2zm-3 0h1.1l.1-.4-1-.2-.2.6zm-13.9 0h3.1l.1-.3 1 .2.2-1-1-.2.2-.9-1-.2-.2.9-.9-.2-.2.9-1-.2-.3 1zm7.9 0h1.1l.1-.3 1 .2.2-.9.9.2.2-1 .9.2.2-1-.9-.2.2-.9-.9-.2.2-1-1-.2.2-.9-1-.2-.2.9-.9-.2-.2 1-1-.2-.2.9-.9-.2-.2 1 .9.2-.2 1 1 .2-.2.9.9.2-.2.5zm.4-1.5l.2-1-.9-.2.1-.8.9.2.2-.9.8.1-.2.9 1 .2-.1.8-1-.2-.2 1-.8-.1zm3.7-23.1l-.2.9 1 .2.2-.9 1 .2.2-1.2-1-.2.2-.9-1-.2-.2.9-.9-.2-.2 1.2.9.2zm-5.7-24.9l.2-.9.8.1-.2.9-.8-.1zm.6-3.9l.1-.8.8.1-.1.8-.8-.1zm.7-3.8l.1-.8.8.1-.1.8-.8-.1zm.3-2l.1-.8.8.1-.1.8-.8-.1zm.6-3.8l.1-.8.8.1-.1.8-.8-.1zm.6-3.8l.2-.9.8.1-.2.9-.8-.1zm-1.7 16.5l.1-.8.8.1-.1.8-.8-.1zm.6-3.9l.1-.8.8.1-.1.8-.8-.1zm.6-3.8l.2-.9.8.1-.2.9-.8-.1zm.7-3.9l.1-.8.8.1-.1.8-.8-.1zm.6-3.9l.1-.8.8.1-.1.8-.8-.1zm-1.4 14.7l.1-.8.9.2-.1.8-.9-.2zm.6-3.9l.2-.9.9.2-.2.9-.9-.2zm.9-5.7l.2-.9.9.2-.2.9-.9-.2zm.7-4l.1-.8.9.2-.1.8-.9-.2zm-1 12.8l.2-.9.8.1-.2.9-.8-.1zm.6-3.9l.1-.8.8.1-.1.8-.8-.1zm.6-3.8l.1-.8.8.1-.1.8-.8-.1zm.7-3.9l.2-.9.8.1-.2.9-.8-.1zm-.8 10.7l.1-.8.8.1-.1.8-.8-.1zm.6-3.8l.1-.8.8.1-.1.8-.8-.1zm.3-2l.1-.8.8.1-.1.8-.8-.1zm.6-3.8l.1-.8.8.1-.1.8-.8-.1zm-.5 8.9l.1-.8.9.2-.1.8-.9-.2zm.7-3.9l.2-.9.9.2-.2.9-.9-.2zm.6-3.9l.1-.8.9.2-.1.8-.9-.2zm-.1 7l.2-.9.8.1-.2.9-.8-.1zm1-5.8l.2-.9.8.1-.2.9-.8-.1zm.1 4.9l.1-.8.8.1-.1.8-.8-.1zm.7-3.8l.1-.8.8.1-.1.8-.8-.1zm.4 3l.1-.8.9.2-.1.8-.9-.2zm.3-1.9l.1-.8.9.2-.1.8-.9-.2zm.9 1.2l.2-.9.8.1-.2.9-.8-.1zm1.4-2.8l.2-1-.9-.2.1-.8.9.2.2-.9.8.1-.2.9 1 .2-.1.8-1-.2-.2 1-.8-.1zm.5 3.1l.2-.9.9.2-.2.9-.9-.2zm.8 1.1l.1-.8.8.1-.1.8-.8-.1zm.4-2l.1-.8.8.1-.1.8-.8-.1zm.4 3.1l.1-.8.8.1-.1.8-.8-.1zm.7-3.9l.1-.8.8.1-.1.8-.8-.1zm.1 5l.2-.9.9.2-.2.9-.9-.2zm.9-5.7l.2-.9.9.2-.2.9-.9-.2zm0 6.8l.1-.8.8.1-.1.8-.8-.1zm.6-3.8l.2-.9.8.1-.2.9-.8-.1zm.6-3.9l.1-.8.8.1-.1.8-.8-.1zm-.5 8.8l.1-.8.8.1-.1.8-.8-.1zm.7-3.8l.1-.8.8.1-.1.8-.8-.1zm.3-2l.1-.8.8.1-.1.8-.8-.1zm.6-3.8l.1-.8.8.1-.1.8-.8-.1zm-.8 10.8l.2-.9.9.2-.2.9-.9-.2zm.6-3.9l.1-.8.9.2-.1.8-.9-.2zm.7-3.8l.1-.8.9.2-.1.8-.9-.2zm.6-3.9l.2-.9.9.2-.2.9-.9-.2zm-1 12.7l.1-.8.8.1-.1.8-.8-.1zm.6-3.8l.2-.9.8.1-.2.9-.8-.1zm1-5.8l.2-.9.8.1-.2.9-.8-.1zm.6-3.9l.1-.8.8.1-.1.8-.8-.1zm-1.4 14.6l.1-.8.8.1-.1.8-.8-.1zm.6-3.8l.1-.8.8.1-.1.8-.8-.1zm.6-3.9l.2-.9.8.1-.2.9-.8-.1zm.7-3.9l.1-.8.8.1-.1.8-.8-.1zm.6-3.8l.1-.8.8.1-.1.8-.8-.1zm-1.8 16.6l.2-.9.9.2-.2.9-.9-.2zm.7-3.9l.1-.8.9.2-.1.8-.9-.2zm.6-3.9l.1-.8.9.2-.1.8-.9-.2zm.3-1.9l.1-.8.9.2-.1.8-.9-.2zm.6-3.9l.1-.8.9.2-.1.8-.9-.2zm.7-3.8l.2-.9.9.2-.2.9-.9-.2zm-.7 10.7l.1-.8.8.1-.1.8-.8-.1zm.6-3.8l.1-.8.8.1-.1.8-.8-.1zm.6-3.8l.2-.9.8.1-.2.9-.8-.1zm.7-4l.1-.8.8.1-.1.8-.8-.1zm-2.6-8.9h-1.1l-.1.6 1 .2.2-.8zm5.5 0h-1.6v.2l-1-.2-.2 1-.9-.2-.2.9-.9-.2-.2 1 .9.2-.2 1 .9.2-.2.9 1 .2-.1.8-1-.2-.2 1-.8-.1.2-1-.9-.2.2-.9-1-.2.2-.9-1-.2-.2.9-.9-.2-.2 1 .9.2-.2 1 .9.2-.2.9 1 .2-.1.8-1-.2-.2 1-.8-.1.2-1-.9-.2.2-.9-1-.2.2-.9-1-.2-.2.9-.9-.2-.2 1 .9.2-.2 1 .9.2-.2.9 1 .2-.1.8-1-.2-.2 1-.8-.1.2-1-.9-.2.2-.9-1-.2.2-.9-1-.2-.2.9-.9-.2-.2.9-1-.2-.2 1-.8-.1.2-1-.9-.2.1-.8.9.2.2-.9.9.2.2-1 1 .2.2-1-1-.2.2-.9-1-.2-.2.9-.9-.2-.2.9-1-.2-.2 1-.8-.1.2-1-.9-.2.1-.8.9.2.2-.9.9.2.2-1 1 .2.2-1-1-.2.2-.9-1-.2-.2.9-.9-.2-.2.9-1-.2-.2 1-.8-.1.2-1-.9-.2.1-.8.9.2.2-.9.9.2.2-1 1 .2.1-.4H483l-.9 4.7h.2l-.1.8h-.2l-.6 3 .3.1-.2.9-.4-.1-.6 3 .4.1-.1.8-.5-.1-.6 3 .6.1-.1.8-.6-.1-.6 3 .7.1-.2.9-.7-.1-.6 3 .8.1-.1.8-.8-.1-.6 3 1 .2.2-.9.9.2.2-1 .9.2.2-.9 1 .2.2-.9.9.2.2-1 .9.2.2-.9 1 .2.2-.9.9.2.2-1 .9.2.2-.9 1 .2.2-.9.9.2.2-1 .8.1-.2 1 1 .2-.2.9.9.2-.2.9.9.2-.2 1 1 .2-.2.9.9.2-.2.9.9.2-.2 1 1 .2-.2.9.9.2-.2.9.9.2-.2 1 1 .2-.2.9.6.1.6-3-.6-.1.1-.8.6.1.6-3-.7-.1.2-.9.7.1 1.5-7.7.2-.9h.1l.6-3h-.1l.1-.8h.2l.6-3h-.3l.1-.8h.3l.6-3-.4-.1.2-1-.9-.2.1-.8.9.2.2-.9.4.1 1-2.2zm-22 34.7l.9.2.2-.9.9.2.2-1 1 .2.2-.9.9.2.2-.9.8.1-.2.9 1 .2-.2.9.9.2-.2 1 .9.2-.2.9 1 .2-.1.8-1-.2-.2 1-.9-.2-.2.9-.9-.2-.2.9-1-.2-.2 1-.8-.1.2-1-.9-.2.2-.9-1-.2.2-.9-.9-.2.2-1-.9-.2.1-.8zm-4.7-2.8l-.2 1 .9.2-.2.9 1 .2-.1.8-1-.2-.2 1-.9-.2-.2.9-.9-.2-.2 1 .9.2-.2 1 1 .2.2-1 1 .2.2-.9.9.2.2-.9.8.1-.2.9 1 .2-.1.8-1-.2-.2 1-.9-.2-.2.9-.9-.2-.2 1 .9.2-.2 1 1 .2.2-1 1 .2.2-.9.9.2.2-.9.8.1-.2.9 1 .2-.1.8-1-.2-.2 1-.9-.2-.2.9-.9-.2-.2 1 .9.2-.2 1 1 .2.2-1 1 .2.2-.9.9.2.2-.9.8.1-.2.9 1 .2-.2.9.9.2-.2 1 1 .2.2-1 1 .2.2-1-1-.2.2-.9-.9-.2.2-1-.9-.2.1-.8.9.2.2-.9.8.1-.2.9 1 .2-.2.9.9.2-.2 1 1 .2.2-1 1 .2.2-1-1-.2.2-.9-.9-.2.2-1-.9-.2.1-.8.9.2.2-.9.8.1-.2.9 1 .2-.2.9.9.2-.2 1 1 .2.2-1 1 .2.2-1-1-.2.2-.9-.9-.2.2-1-.9-.2.1-.8.9.2.2-.9.9.2.2-1 1 .2.2-1-1-.2.2-.9-1-.2-.2.9-.9-.2-.2.9-1-.2-.2 1-.8-.1.2-1-.9-.2.1-.8.9.2.2-.9.9.2.2-1 1 .2.2-1-1-.2.2-.9-1-.2-.2.9-.9-.2-.2.9-1-.2-.2 1-.8-.1.2-1-.9-.2.1-.8.9.2.2-.9.9.2.2-1 1 .2.2-1-1-.2.2-.9-1-.2-.2.9-.9-.2-.2.9-1-.2-.2 1-.8-.1.2-1-.9-.2.2-.9-1-.2.2-.9-1-.2-.2.9-.9-.2-.2 1 .9.2-.2 1 .9.2-.2.9 1 .2-.1.8-1-.2-.2 1-.8-.1.2-1-.9-.2.2-.9-1-.2.2-.9-1-.2-.2.9-.9-.2-.2 1 .9.2-.2 1 .9.2-.2.9 1 .2-.1.8-1-.2-.2 1-.8-.1.2-1-.9-.2.2-.9-1-.2.2-.9-1-.2-.2.9-.9-.2-.2 1 .9.2zm13.9-29.5l.2-1-.9-.2.1-.8.9.2.1-.6H491v.1l-.6-.1h-.4l-.2 1 .9.2-.2 1 1 .2-.2.9.9.2-.2.9 1 .2.2-.9 1 .2.2-.9.9.2.2-1 .9.2.2-1-.9-.2.1-.9h-2.1l-.1.7 1 .2-.1.8-1-.2-.2 1-.6-.4zm-3.4 33.2l-1-.2.2-.9-1-.2-.2.9-.9-.2-.2 1 .9.2-.2 1 1 .2.2-1 1 .2.2-1zm-.2-11.9l-.2.9 1 .2.2-.9 1 .2.2-1-1-.2.2-1-1-.2-.2 1-.9-.2-.2 1 .9.2zm-13.7 15.5l-.6 3h.3l-.1.9h-.3l-.6 3 .4.1-.2.9-.4-.1-.6 3 .5.1-.1.8-.5-.1-1 5 .7.1-.1.8-.7-.1-.6 3 .8.1-.1.8-.8-.1-1.5 7.8h.2l.2-.9.8.1-.2.9 1 .2-.1.8-1-.2-.2 1-.8-.1.2-1h-.2l-.6 3h.2l-.2.9h-.2l-.1.6h.4l.1-.4.8.1v.3h2.4-.3l.2-1-.9-.2.1-.8.9.2.2-.9.9.2.2-1 1 .2.2-1-1-.2.2-.9-.9-.2.2-1-.9-.2.1-.8.9.2.2-.9.8.1-.2.9 1 .2-.2.9.9.2-.2 1 1 .2.2-1 1 .2.2-1-1-.2.2-.9-.9-.2.2-1-.9-.2.1-.8.9.2.2-.9.8.1-.2.9 1 .2-.2.9.9.2-.2 1 1 .2.2-1 1 .2.2-1-1-.2.2-.9-.9-.2.2-1-.9-.2.1-.8.9.2.2-.9.8.1-.3.4 1 .2-.2.9.9.2-.2 1 1 .2.2-1 1 .2.2-.9.9.2.2-.9.8.1-.2.9 1 .2-.1.8-1-.2-.2 1-.9-.2-.2.9-.9-.2-.2 1 .9.2-.2 1 1 .2.2-1 1 .2.2-.9.9.2.2-.9.8.1-.2.9 1 .2-.1.8-1-.2-.2 1-.9-.2-.2.9-.9-.2-.2 1 .9.2-.2 1 1 .2.2-1 1 .2.2-.9.9.2.2-.9.8.1-.2.9.6.1.6-3-.6-.1.1-.8.6.1.6-3-.7-.1.2-.9.7.1.6-3-.8-.1.1-.8.8.1.2-1-.8-.1.2-.9.9.1 1.5-7.7.2-.9h.1l.6-3h-.3l-.2 1-1-.2-.2.9-.9-.2-.2.9-.9-.2-.2 1-1-.2-.2.9-.9-.2-.2.9-.9-.2-.2 1-1-.2-.2.9-.9-.2-.2.9-.9-.2-.2 1-1-.2-.2.9-.8-.1.2-.9-.9-.2.2-1-1-.2.2-.9-.9-.2.2-.9-.9-.2.2-1-1-.2.2-.9-.9-.2.2-.9-.9-.2.2-1-1-.2.2-.9-.9-.2.2-.9-.9-.2.2-1-1-.2.2-.9-.9.5zm-53.4 3h13.9c5.6 0 8.1 2.5 7.2 7-.9 4.5-4.2 6.8-9.9 6.8h-13.9l2.7-13.8z"/><path d="M356 276.4l-15.7-5-15.5 40.1c-.3.8-.9 1.5-1.8 1.7-.6.1-1.1.1-1.6-.1.6.3 1.3.5 2 .5 1.8.1 3.4-.7 4.4-2.1l28.2-35.1z" fill-rule="evenodd" clip-rule="evenodd" fill="#c7c9cb"/><path d="M340.3 271.4l15.6 5.3 13.7 4.6c2.4.8 4.9-.3 6.1-2.5L415 203c.3-.6.5-1.3.6-2 .1-1.8-.7-3.4-2-4.3-.4-.4-.9-.7-1.4-.7-.4-.1-.8-.2-1.2-.2-.8-.1-1.7.1-2.4.4l-129.5 45.2c-2.6.9-4 3.7-3.1 6.3.5 1.5 1.7 2.6 3.1 3.1l29.6 10 .2.1 12.7 12.8 18.7-2.3z" fill-rule="evenodd" clip-rule="evenodd" fill="#d2d3d5"/><path class="st1" d="M340.3 271.4l73.3-71.2c1-1 1-2.5.1-3.5-.4-.4-.9-.7-1.4-.7-.6-.1-1.2 0-1.8.4L310 259.5c-.5.3-.9.8-1.1 1.3-.1.2-.1.3-.1.5v.9l1.5 6.8 9.5 42.3c.1.6.4 1.1.8 1.4.2.1.4.3.6.4.5.2 1 .2 1.6.1.9-.2 1.6-.9 1.8-1.7l15.7-40.1z"/><path d="M289 327l3.1-2.8c.6-.5 1.3-.8 2.1-.7 4 .3 7.9.5 11.7.7 3.9.2 7.9.2 11.7.2 3.6 0 7.2-.1 10.9-.3 3.6-.2 7.2-.6 10.7-1.1 15-12.7 27.9-19.5 40.9-24.7-6.6 12.9-13.1 19.9-20.4 26.6l-.1.1-.1.1-.2.2-.1.1c-1.2 1.1-2.3 2.1-3.4 3.2l-1.5 1.4-.1.1-.1.1c-.3 3-.4 5.9-.3 8.8.1 2.9.5 5.8 1.1 8.7.5 2.4 1.1 4.7 1.9 7.1.7 2.4 1.6 4.7 2.4 7.1l.3.8c.4 1 .1 2.1-.7 2.9l-3.5 3.5c-1.1 1.2-2.8 1.2-4 .2L332.6 353l-1.4 1.1 1.7 11.3c.2 1.4-.7 2.8-2.1 3.2l-1.9.5c-.7.2-1.5.1-2.2-.3l-4.2-2.6c-15.1-9.5-13.7-8.6-28-17.7-1-.6-1.5-1.8-1.2-3.1v-.2c.3-1.2 1.4-2.1 2.7-2.2l15.6-.4 2.4-1.4-23.9-9.5c-.5-.1-.9-.4-1.3-.8-1-1.1-.9-2.9.2-3.9" fill-rule="evenodd" clip-rule="evenodd" fill="#9c9c9c"/></svg>